<?xml version="1.0" encoding="UTF-8" standalone="no"?>
<!-- Created with Inkscape (http://www.inkscape.org/) -->

<svg
   xmlns:dc="http://purl.org/dc/elements/1.1/"
   xmlns:cc="http://creativecommons.org/ns#"
   xmlns:rdf="http://www.w3.org/1999/02/22-rdf-syntax-ns#"
   xmlns:svg="http://www.w3.org/2000/svg"
   xmlns="http://www.w3.org/2000/svg"
   xmlns:sodipodi="http://sodipodi.sourceforge.net/DTD/sodipodi-0.dtd"
   xmlns:inkscape="http://www.inkscape.org/namespaces/inkscape"
   width="265.67017"
   height="265.67017"
   id="svg2"
   inkscape:label="Pozadí"
   version="1.1"
   inkscape:version="0.91 r13725"
   sodipodi:docname="qhangups_disabled.svg">
  <sodipodi:namedview
     id="base"
     pagecolor="#ffffff"
     bordercolor="#666666"
     borderopacity="1.0"
     inkscape:pageopacity="0.0"
     inkscape:pageshadow="2"
     inkscape:zoom="1.4"
     inkscape:cx="56.28341"
     inkscape:cy="129.42146"
     inkscape:document-units="px"
     inkscape:current-layer="layer1"
     showgrid="false"
     inkscape:snap-global="true"
     inkscape:snap-page="true"
     inkscape:snap-grids="false"
     inkscape:snap-to-guides="false"
     inkscape:snap-bbox="true"
     inkscape:window-width="1920"
     inkscape:window-height="1021"
     inkscape:window-x="-4"
     inkscape:window-y="0"
     inkscape:window-maximized="1"
     fit-margin-top="5"
     fit-margin-left="5"
     fit-margin-right="5"
     fit-margin-bottom="5">
    <inkscape:grid
       originy="-373.12055px"
       originx="-263.57143px"
       snapvisiblegridlinesonly="true"
       enabled="true"
       visible="true"
       empspacing="5"
       id="grid3109"
       type="xygrid" />
  </sodipodi:namedview>
  <defs
     id="defs3" />
  <metadata
     id="metadata6">
    <rdf:RDF>
      <cc:Work
         rdf:about="">
        <dc:format>image/svg+xml</dc:format>
        <dc:type
           rdf:resource="http://purl.org/dc/dcmitype/StillImage" />
        <dc:title></dc:title>
      </cc:Work>
    </rdf:RDF>
  </metadata>
  <g
     transform="translate(-263.57143,-413.57142)"
     id="layer1"
     inkscape:groupmode="layer"
     inkscape:label="Vrstva 1">
    <path
       inkscape:connector-curvature="0"
       d="m 358.75089,486.26986 c -6.79088,2.5408 -14.37711,9.23697 -17.29613,15.26685 -1.89875,3.9223 -2.04196,6.08009 -2.04196,30.76606 l 0,26.54791 2.63636,2.63637 2.63637,2.63636 17.72727,0 17.72726,0 2.63638,-2.63636 2.63636,-2.63637 0,-18.72727 0,-18.72727 -2.63636,-2.63638 c -2.56418,-2.56417 -2.97494,-2.63636 -15,-2.63636 l -12.36364,0 0,-3.54966 c 0,-6.74235 3.60228,-11.00035 10.5,-12.4113 2.91222,-0.5957 3.00882,-0.79967 3.30147,-6.97102 0.16581,-3.49655 0.0674,-6.96726 -0.21861,-7.71269 -0.73349,-1.91144 -3.61657,-1.6888 -10.24477,0.79113 z m 66,0 c -6.79088,2.5408 -14.37711,9.23697 -17.29613,15.26685 -1.89875,3.9223 -2.04196,6.08009 -2.04196,30.76606 l 0,26.54791 2.63636,2.63637 2.63637,2.63636 17.72727,0 17.72727,0 2.63637,-2.63636 2.63636,-2.63637 0,-18.72727 0,-18.72727 -2.63636,-2.63638 c -2.56418,-2.56417 -2.97492,-2.63636 -15,-2.63636 l -12.36364,0 0,-3.54966 c 0,-6.74235 3.60228,-11.00035 10.5,-12.4113 2.91222,-0.5957 3.00882,-0.79967 3.30147,-6.97102 0.16581,-3.49655 0.0674,-6.96726 -0.21861,-7.71269 -0.73349,-1.91144 -3.61657,-1.6888 -10.24477,0.79113 z m -29.33809,169.18453 0,-18.78722 -10.62118,-1.23462 c -29.95102,-3.48154 -56.46438,-18.85093 -75.2572,-43.62544 -6.43073,-8.47761 -15.23262,-26.27426 -18.03699,-36.4692 -8.40859,-30.56839 -2.57864,-63.68418 15.92312,-90.44792 5.97099,-8.63734 19.91956,-22.40699 28.29471,-27.93177 21.21839,-13.99699 47.12636,-20.44911 71.49779,-17.8058 13.66378,1.48197 23.26019,4.13033 34.89729,9.63078 12.63835,5.9737 19.33262,10.59116 29.4735,20.32974 28.23784,27.11764 39.08662,64.26725 30.77479,105.38258 -9.82232,48.58715 -46.10329,91.50714 -97.52859,115.37524 l -9.41724,4.37084 0,-18.78721 z"
       style="fill:#727272;fill-opacity:1"
       id="path3097" />
  </g>
</svg>
